<svg xmlns="http://www.w3.org/2000/svg" xmlns:xlink="http://www.w3.org/1999/xlink" viewBox="0 0 42 24"><path d="M 21.821 0.929 C 22.354 0.38 23.092 0.068 23.865 0.065 L 33.762 0.065 C 40.198 0.065 43.421 8.012 38.87 12.659 L 28.958 22.783 C 28.503 23.247 27.725 22.918 27.725 22.261 L 27.725 13.345 L 28.87 12.175 C 29.781 11.245 29.136 9.656 27.849 9.656 L 13.277 9.656 L 21.821 0.929 Z" fill="rgb(255, 255, 255)"></path><path d="M 19.18 22.071 C 18.647 22.62 17.908 22.932 17.135 22.935 L 7.238 22.935 C 0.803 22.935 -2.42 14.989 2.131 10.341 L 12.043 0.218 C 12.498 -0.247 13.276 0.082 13.276 0.74 L 13.276 9.656 L 12.13 10.826 C 11.22 11.755 11.865 13.344 13.152 13.344 L 27.724 13.344 L 19.178 22.071 Z" fill="rgb(255, 255, 255)"></path></svg>