<svg xmlns="http://www.w3.org/2000/svg" viewBox="0 0 256 256" focusable="false" color="var(--token-2d3de992-80f6-43cc-b5d5-16857da63015, rgb(140, 255, 46))" style="user-select: none; width: 100%; height: 100%; display: inline-block; fill: var(--token-2d3de992-80f6-43cc-b5d5-16857da63015, rgb(140, 255, 46)); color: var(--token-2d3de992-80f6-43cc-b5d5-16857da63015, rgb(140, 255, 46)); flex-shrink: 0;"><g color="var(--token-2d3de992-80f6-43cc-b5d5-16857da63015, rgb(140, 255, 46))" weight="fill"><path d="M248,128a8,8,0,0,1-8,8H215.63A88.13,88.13,0,0,1,136,215.63V240a8,8,0,0,1-16,0V215.63A88.13,88.13,0,0,1,40.37,136H16a8,8,0,0,1,0-16H40.37A88.13,88.13,0,0,1,120,40.37V16a8,8,0,0,1,16,0V40.37A88.13,88.13,0,0,1,215.63,120H240A8,8,0,0,1,248,128Z"></path></g></svg>