<svg xmlns="http://www.w3.org/2000/svg" viewBox="0 0 256 256" focusable="false" color="var(--token-2d3de992-80f6-43cc-b5d5-16857da63015, rgb(140, 255, 46))" style="user-select: none; width: 100%; height: 100%; display: inline-block; fill: var(--token-2d3de992-80f6-43cc-b5d5-16857da63015, rgb(140, 255, 46)); color: var(--token-2d3de992-80f6-43cc-b5d5-16857da63015, rgb(140, 255, 46)); flex-shrink: 0;"><g color="var(--token-2d3de992-80f6-43cc-b5d5-16857da63015, rgb(140, 255, 46))" weight="fill"><path d="M240,120H215.63A88.13,88.13,0,0,0,136,40.37V16a8,8,0,0,0-16,0V40.37A88.13,88.13,0,0,0,40.37,120H16a8,8,0,0,0,0,16H40.37A88.13,88.13,0,0,0,120,215.63V240a8,8,0,0,0,16,0V215.63A88.13,88.13,0,0,0,215.63,136H240a8,8,0,0,0,0-16ZM128,200a72,72,0,1,1,72-72A72.08,72.08,0,0,1,128,200Zm40-72a40,40,0,1,1-40-40A40,40,0,0,1,168,128Z"></path></g></svg>